<svg width="270" height="295" viewBox="0 0 270 295" fill="none" xmlns="http://www.w3.org/2000/svg">
<path d="M79.182 246.016V68.096H94.542L96.334 93.184C100.771 83.6267 107.086 76.544 115.278 71.936C123.641 67.1573 132.942 64.768 143.182 64.768C155.129 64.768 165.369 67.584 173.902 73.216C182.435 78.848 189.006 86.528 193.614 96.256C198.222 105.984 200.526 117.077 200.526 129.536C200.526 141.995 198.222 153.173 193.614 163.072C189.177 172.971 182.691 180.821 174.158 186.624C165.795 192.256 155.47 195.072 143.182 195.072C132.601 195.072 123.299 192.853 115.278 188.416C107.257 183.808 101.113 177.067 96.846 168.192V246.016H79.182ZM97.102 130.048C97.102 139.435 98.8087 147.883 102.222 155.392C105.635 162.731 110.499 168.533 116.814 172.8C123.299 177.067 131.065 179.2 140.11 179.2C149.155 179.2 156.835 177.067 163.15 172.8C169.465 168.533 174.243 162.731 177.486 155.392C180.899 147.883 182.606 139.435 182.606 130.048C182.606 120.491 180.899 112.043 177.486 104.704C174.243 97.1947 169.465 91.392 163.15 87.296C156.835 83.0293 149.155 80.896 140.11 80.896C131.065 80.896 123.299 83.0293 116.814 87.296C110.499 91.392 105.635 97.1947 102.222 104.704C98.8087 112.043 97.102 120.491 97.102 130.048Z" fill="#E1880A"/>
<path d="M136.08 152.08V238H127.44V152.08H136.08ZM128.88 238V230.08H175.56V238H128.88Z" fill="white"/>
</svg>
