<svg width="512" height="512" viewBox="0 0 512 512" fill="none" xmlns="http://www.w3.org/2000/svg">
<rect width="512" height="512" fill="#FF4D00"/>
<path d="M139.91 121.388H411.91V158.188H139.91V121.388ZM239.11 214.988V147.788H269.11V212.988C269.11 233.254 274.177 248.988 284.31 260.188C294.443 271.388 308.177 276.988 325.51 276.988C342.843 276.988 356.577 271.388 366.71 260.188C376.843 248.988 381.91 233.654 381.91 214.188V147.788H411.91V214.588C411.91 235.121 408.443 252.854 401.51 267.788C394.577 282.988 384.71 294.588 371.91 302.588C359.11 310.854 343.777 314.988 325.91 314.988C298.443 314.988 277.11 305.921 261.91 287.788C246.71 269.654 239.11 245.388 239.11 214.988Z" fill="#131313"/>
<path d="M139.911 400V128H176.711V400H139.911ZM166.311 400V370H313.511V400H166.311Z" fill="#131313"/>
</svg>
